PathFileType	4	(X/Y/Z)	..\data\2014048\dynamic\2014048_C5_02.trc
DataRate	CameraRate	NumFrames	NumMarkers	Units	OrigDataRate	OrigDataStartFrame	OrigNumFrames
100.000000	100.000000	4	52	mm	100.000000	36	144
Frame#	Time	L_IAS			L_IPS			R_IPS			R_IAS			L_FTC			L_FLE			L_FME			L_FAX			L_TTC			L_FAL			L_TAM			L_FCC			L_FM1			L_FM2			L_FM5			R_FTC			R_FLE			R_FME			R_FAX			R_TTC			R_FAL			R_TAM			R_FCC			R_FM1			R_FM2			R_FM5			CV7			TV10			SXS			SJN			L_SIA			L_SRS			L_SAA			L_SAE			L_HLE			L_HME			L_UOA			L_RSP			L_UHE			L_HM2			L_HM5			R_SIA			R_SRS			R_SAA			R_SAE			R_HLE			R_HME			R_UOA			R_RSP			R_UHE			R_HM2			R_HM5			
		X1	Y1	Z1	X2	Y2	Z2	X3	Y3	Z3	X4	Y4	Z4	X5	Y5	Z5	X6	Y6	Z6	X7	Y7	Z7	X8	Y8	Z8	X9	Y9	Z9	X10	Y10	Z10	X11	Y11	Z11	X12	Y12	Z12	X13	Y13	Z13	X14	Y14	Z14	X15	Y15	Z15	X16	Y16	Z16	X17	Y17	Z17	X18	Y18	Z18	X19	Y19	Z19	X20	Y20	Z20	X21	Y21	Z21	X22	Y22	Z22	X23	Y23	Z23	X24	Y24	Z24	X25	Y25	Z25	X26	Y26	Z26	X27	Y27	Z27	X28	Y28	Z28	X29	Y29	Z29	X30	Y30	Z30	X31	Y31	Z31	X32	Y32	Z32	X33	Y33	Z33	X34	Y34	Z34	X35	Y35	Z35	X36	Y36	Z36	X37	Y37	Z37	X38	Y38	Z38	X39	Y39	Z39	X40	Y40	Z40	X41	Y41	Z41	X42	Y42	Z42	X43	Y43	Z43	X44	Y44	Z44	X45	Y45	Z45	X46	Y46	Z46	X47	Y47	Z47	X48	Y48	Z48	X49	Y49	Z49	X50	Y50	Z50	X51	Y51	Z51	X52	Y52	Z52	

37	0.36	-650.8908081054689	890.1192626953127	114.4073257446288	-852.6173095703127	938.8499145507815	171.0521087646484	-852.0208129882815	942.5002441406252	277.9171752929687	-656.1903686523439	887.001403808594	349.180908203125	-723.9240722656251	871.2703247070315	46.98351287841789	-563.5547485351564	472.3180541992189	84.16963958740229	-543.9874267578126	475.798065185547	211.6161956787109	-569.4653930664064	409.5984802246095	82.55072784423822	-513.1071166992189	407.272674560547	134.9471588134765	-607.0993041992189	91.39409637451173	128.069839477539	-571.8914794921876	111.3068008422852	207.3219146728516	-645.9044189453126	50.47290420532228	191.7161102294921	-461.2402343750001	47.22429656982423	173.272216796875	-468.4885253906251	53.39441299438478	127.4434585571289	-524.2238769531251	32.64033126831055	89.78679656982416	-737.7506713867189	865.0632934570315	422.7071838378906	-769.4575195312502	435.0314941406251	344.6300659179687	-763.8015747070314	442.9888000488282	213.2861633300781	-790.3169555664065	381.2528076171876	344.9850158691406	-741.4266967773439	371.6986694335938	283.8111267089843	-867.6165771484377	62.46016311645509	304.3184204101562	-851.0449218750002	82.52060699462892	219.6302490234374	-919.2414550781252	29.97563552856446	255.9479064941406	-739.7969360351564	19.12836456298828	230.4244384765625	-735.9976806640626	32.0806007385254	282.9845886230468	-783.3991699218752	20.14833450317383	326.7103881835937	-791.847351074219	1397.497680664063	229.3108978271484	-848.0170898437502	1117.162963867188	225.8051452636718	-632.5493774414064	1092.551879882813	225.7589416503906	-678.9715576171876	1315.255615234375	223.8932495117187	-874.0113525390627	1180.078979492188	161.2574310302734	-838.4788208007815	1319.011108398438	150.4516448974609	-801.3271484375002	1323.439453125	72.19095611572257	-752.9525146484376	1329.012084960938	60.28928756713859	-834.5577392578127	1027.244140625	4.200292110443014	-842.1445312500002	1018.254516601563	87.86849975585929	-856.8435668945315	1004.730163574219	45.06348419189443	-768.676940917969	784.6663818359377	7.102969646453765	-837.6955566406252	798.8635253906252	-33.90758895874034	-769.8899536132815	692.8510742187501	0.7335206866263402	-855.6350097656252	721.3554077148439	-39.10202026367199	-859.4293212890627	1178.218505859375	329.0286560058593	-833.1895141601565	1318.912841796875	319.3631286621093	-778.4925537109377	1327.316040039063	391.316650390625	-730.9440917968751	1326.13671875	404.4757690429688	-723.113220214844	1011.871154785156	483.1621398925781	-734.6149291992189	995.4035644531252	403.89208984375	-737.2027587890626	982.3674926757815	453.741943359375	-521.1239624023439	860.5071411132815	459.1719970703126	-580.6531982421877	826.895935058594	503.4728698730469	-461.9026489257814	792.5276489257815	475.1061401367188	-546.9200439453127	763.3670654296876	517.3973999023438	
38	0.37	-635.0407714843751	888.456726074219	114.7874374389648	-837.7312011718752	935.9952392578127	169.5966644287109	-838.034851074219	940.0505371093752	276.4493408203124	-642.6066284179689	884.876159667969	349.7101745605469	-707.3959350585939	869.0775146484377	46.67462158203117	-547.8257446289064	469.9200134277345	85.53076934814447	-530.6682739257814	473.0626220703126	213.3535461425781	-550.6879882812501	406.8392333984376	83.69176483154291	-494.8475646972657	407.1994628906251	136.532485961914	-564.4776000976564	86.20494842529298	127.2002563476562	-531.5050659179689	108.7009582519532	206.7280120849609	-600.5550537109376	42.30617904663087	190.5484008789062	-416.1519775390626	53.49863815307619	173.5118865966797	-423.3418884277345	58.9037322998047	127.4839553833008	-477.0879516601564	33.9034767150879	89.44427490234371	-724.9158325195314	863.1195068359377	422.6663513183594	-763.0297851562501	434.108856201172	344.3031311035156	-756.6263427734376	442.3052368164064	212.9449310302734	-785.0037841796877	380.6521606445313	344.4825134277343	-736.1232299804689	370.2602844238282	283.4795227050781	-867.1143798828127	62.83078384399415	303.3464965820312	-850.1306762695315	82.97183990478517	218.8397369384765	-918.841247558594	30.87954139709473	254.7747344970703	-739.2487182617189	19.10651397705078	230.3287658691406	-735.6395874023439	32.12715911865235	282.9131164550781	-783.256042480469	20.41221046447754	326.2873535156249	-778.136901855469	1395.373046875	229.5620880126953	-834.4547119140627	1115.055908203125	225.7266693115234	-618.5394287109376	1090.455688476563	225.6284484863281	-665.2645263671876	1313.265258789063	223.7597961425781	-860.4128417968752	1177.746948242188	162.1368103027343	-824.9148559570315	1316.751220703125	151.1131439208984	-788.2473144531252	1321.114013671875	72.50852203369132	-739.9331054687501	1326.771362304688	60.21576309204094	-825.4822998046877	1025.88623046875	5.875552177429099	-831.3157348632815	1016.738525390625	89.36275482177726	-846.9306640625002	1004.01513671875	47.08395767211904	-765.8712768554689	781.8006591796877	6.776506900787261	-835.4035644531252	798.1206054687502	-32.75775146484386	-770.8178710937502	689.7043457031251	0.8278220295905125	-856.1572265625002	721.5225219726564	-37.59093093872082	-845.0472412109377	1176.028442382813	329.8181152343749	-819.093200683594	1316.876220703125	320.1271667480468	-763.8278808593751	1325.135498046875	391.731689453125	-716.1692504882814	1324.223754882813	404.4408874511719	-702.9208984375002	1010.373901367188	483.8380737304688	-714.5309448242189	993.374450683594	404.6965026855469	-716.3790893554689	980.4957275390627	454.7565307617188	-495.8138122558595	866.4240722656252	457.4398498535157	-553.5585937500002	830.1381835937502	501.8854370117188	-433.5902404785158	801.3192138671877	472.5195312500001	-516.9177856445315	767.8443603515626	515.12841796875	
39	0.38	-619.1184082031251	886.6037597656252	115.0426177978515	-822.7454833984377	932.8484497070315	167.9755249023437	-824.0510864257815	937.341247558594	274.7148742675781	-629.0222778320314	882.6058349609377	350.2558288574219	-690.7950439453126	866.5142822265627	46.23932266235344	-532.8076171875001	466.9354858398439	86.82052612304682	-517.8937988281251	469.5726928710939	215.1335754394531	-532.7077636718751	403.8518371582032	84.79651641845697	-477.3812561035157	406.619842529297	138.0538177490234	-523.4145507812501	82.2734832763672	126.3252792358398	-492.5723571777345	107.0097427368164	206.1089019775391	-556.6710205078126	35.5186996459961	189.3577423095703	-373.2661743164063	60.53427124023439	173.7386322021484	-380.2972412109376	65.25733947753908	127.4990768432617	-431.9040527343751	36.30516815185548	89.14772033691402	-712.2308959960939	861.0213012695315	422.4812927246094	-756.2194213867189	433.1479797363282	343.9415588378906	-748.9478759765626	441.5544738769532	212.5992126464843	-779.3171386718752	380.0336303710938	343.9384765624999	-730.4027709960939	368.7897338867188	283.1436767578124	-866.6315917968752	63.31175613403322	302.4421386718749	-849.214050292969	83.50184631347658	218.1164550781249	-918.532897949219	31.96554946899415	253.6937408447265	-738.6446533203126	19.12437438964844	230.2682800292968	-735.2257690429689	32.18655395507813	282.8919982910156	-783.0924072265627	20.63690567016602	325.9018554687499	-764.3796997070314	1393.015625	229.7578125	-820.9027099609377	1112.77294921875	225.5823364257812	-604.4639892578126	1087.988159179688	225.530517578125	-651.4710083007814	1311.018798828125	223.5924835205078	-846.7342529296877	1175.153564453125	162.8897552490234	-811.2713623046877	1314.238891601563	151.6912841796874	-775.0343017578127	1318.58642578125	72.7683792114257	-726.7683105468751	1324.30615234375	60.0868835449218	-816.326354980469	1024.346435546875	7.467660427093407	-820.3584594726565	1014.967529296875	90.73519134521476	-836.8784179687502	1003.074523925781	48.96672439575187	-762.5596313476564	779.0742797851565	6.250375270843414	-832.5349121093752	797.3687744140627	-31.66937637329113	-771.036560058594	686.7894287109376	0.7978432178496372	-855.943298339844	721.7807617187501	-36.00714111328136	-830.6822509765627	1173.625244140625	330.5024414062499	-804.9592285156252	1314.633056640625	320.8248291015624	-749.1122436523439	1322.700439453125	392.0794677734375	-701.3535766601564	1322.04150390625	404.3599853515625	-682.8405761718752	1008.731750488281	484.4385375976563	-694.6556396484376	991.1580810546877	405.4511108398438	-695.7246704101564	978.4969482421877	455.7171020507813	-471.0799865722658	872.2026977539065	455.5534057617188	-526.9569091796877	833.3831176757815	500.1542968750001	-406.1115722656252	809.9553222656252	469.7250061035157	-487.5991210937502	772.4182128906252	512.6748657226562	
40	0.39	-603.1215209960939	884.5933227539065	115.2096099853515	-807.6121826171877	929.5027465820315	166.1842193603515	-810.0225219726565	934.4425048828127	272.7162780761718	-615.3911743164064	880.2434692382815	350.8399353027344	-674.0867919921876	863.6524658203127	45.68559646606437	-518.3254394531251	463.5074768066407	88.03082275390621	-505.4680786132814	465.5246582031251	216.9288330078125	-515.4169921875001	400.7380981445314	85.86364746093746	-460.6018066406251	405.620086669922	139.5230560302734	-484.3888244628907	79.46844482421876	125.4898376464843	-455.5389099121095	106.0846405029297	205.5200958251953	-514.8611450195314	30.04425239562989	188.1834564208984	-333.0044555664063	67.93806457519533	174.0342407226562	-339.7763977050782	72.06164550781251	127.5729751586914	-389.1786193847657	39.51328659057618	88.97328948974607	-699.6597900390626	858.8371582031252	422.1361999511719	-749.0020141601564	432.1682128906251	343.5676879882812	-740.7206420898439	440.7168273925782	212.2764587402343	-773.2273559570315	379.4137878417969	343.3821105957031	-724.2307739257814	367.2896728515626	282.8375854492187	-866.1780395507815	63.94880676269533	301.6625671386718	-848.2918701171877	84.14512634277345	217.5115509033203	-918.3317871093752	33.28549194335938	252.7589263916015	-738.0101928710939	19.16290855407715	230.2518768310547	-734.7708129882814	32.24369812011719	282.9275512695312	-782.921813964844	20.79405784606934	325.5771179199218	-750.5596923828126	1390.472900390625	229.8741912841797	-807.3165283203127	1110.361572265625	225.3886260986328	-590.2943725585939	1085.223876953125	225.4601745605468	-637.5711059570314	1308.565795898438	223.3753967285156	-832.9495849609377	1172.350463867188	163.5016632080077	-797.5296630859377	1311.5205078125	152.1628875732421	-761.6649780273439	1315.906372070313	72.95253753662101	-713.4351806640626	1321.669311523438	59.89073562622063	-807.0220947265627	1022.663391113281	8.956336021423242	-809.2537231445315	1013.010437011719	91.97698974609366	-826.6555786132815	1001.958251953125	50.6802330017089	-758.6803588867189	776.5004882812502	5.517545223235992	-829.030944824219	796.6113891601565	-30.6483440399171	-770.4248657226565	684.1167602539064	0.6227868199347507	-854.9063110351565	722.0893554687501	-34.35230636596691	-816.3169555664065	1171.063842773438	331.0576782226562	-790.7789306640627	1312.231811523438	321.4210510253906	-734.3497924804689	1320.07470703125	392.3340759277344	-686.5032958984376	1319.651000976563	404.2138977050782	-662.9194335937502	1006.996887207031	484.9584960937501	-675.0493164062501	988.807312011719	406.1517639160157	-675.2912597656251	976.408630371094	456.6065368652344	-446.9859008789064	877.8215942382815	453.5051879882813	-500.9197082519533	836.6504516601565	498.3088073730469	-379.5220642089845	818.3833007812502	466.7448120117188	-459.0544433593752	777.0994262695315	510.0965881347657	
